<?xml version="1.0" encoding="UTF-8" standalone="no"?><svg xmlns="http://www.w3.org/2000/svg" xmlns:xlink="http://www.w3.org/1999/xlink" clip-rule="evenodd" stroke-miterlimit="10" viewBox="0 0 1024 768"><desc>SVG generated by Keynote</desc><defs></defs><g transform="matrix(1.00, 0.00, -0.00, -1.00, 0.0, 768.0)"><g><clipPath id="clip0x6080096a7ec0"><path d="M 0.0 768.0 L 1024.0 768.0 L 1024.0 0.0 L 0.0 0.0 Z M 0.0 768.0 "></path></clipPath><g clip-path="url(#clip0x6080096a7ec0)"><image xlink:href="../../D1633A7A-1E45-48FF-BA06-56002168097B/assets/4E131E180F71435CE7831D195B770FC0.jpeg" width="2048.00" height="1536.00" transform="matrix(0.50, 0.00, -0.00, -0.50, 0.0, 768.0)"></image></g></g><text xml:space="preserve" font-family="Helvetica-Light,Helvetica" font-size="66.4" fill="#FEFFFF" transform="matrix(1.00, 0.00, -0.00, -1.00, 646.7, 696.6)">M</text><text xml:space="preserve" font-family="Helvetica-Light,Helvetica" font-size="66.4" fill="#FEFFFF" transform="matrix(1.00, 0.00, -0.00, -1.00, 702.1, 696.6)">e</text><text xml:space="preserve" font-family="Helvetica-Light,Helvetica" font-size="66.4" fill="#FEFFFF" transform="matrix(1.00, 0.00, -0.00, -1.00, 739.0, 696.6)">d</text><text xml:space="preserve" font-family="Helvetica-Light,Helvetica" font-size="66.4" fill="#FEFFFF" transform="matrix(1.00, 0.00, -0.00, -1.00, 779.5, 696.6)">u</text><text xml:space="preserve" font-family="Helvetica-Light,Helvetica" font-size="66.4" fill="#FEFFFF" transform="matrix(1.00, 0.00, -0.00, -1.00, 816.5, 696.6)">s</text><text xml:space="preserve" font-family="Helvetica-Light,Helvetica" font-size="66.4" fill="#FEFFFF" transform="matrix(1.00, 0.00, -0.00, -1.00, 849.7, 696.6)">a</text><text xml:space="preserve" font-family="Helvetica-Light,Helvetica" font-size="66.4" fill="#FEFFFF" transform="matrix(1.00, 0.00, -0.00, -1.00, 886.6, 696.6)"> </text><text xml:space="preserve" font-family="Helvetica-Light,Helvetica" font-size="66.4" fill="#FEFFFF" transform="matrix(1.00, 0.00, -0.00, -1.00, 905.0, 696.6)"> </text><text xml:space="preserve" font-family="Helvetica-Light,Helvetica" font-size="66.4" fill="#FEFFFF" transform="matrix(1.00, 0.00, -0.00, -1.00, 587.8, 617.6)">E</text><text xml:space="preserve" font-family="Helvetica-Light,Helvetica" font-size="66.4" fill="#FEFFFF" transform="matrix(1.00, 0.00, -0.00, -1.00, 628.3, 617.6)">x</text><text xml:space="preserve" font-family="Helvetica-Light,Helvetica" font-size="66.4" fill="#FEFFFF" transform="matrix(1.00, 0.00, -0.00, -1.00, 661.5, 617.6)">a</text><text xml:space="preserve" font-family="Helvetica-Light,Helvetica" font-size="66.4" fill="#FEFFFF" transform="matrix(1.00, 0.00, -0.00, -1.00, 698.4, 617.6)">m</text><text xml:space="preserve" font-family="Helvetica-Light,Helvetica" font-size="66.4" fill="#FEFFFF" transform="matrix(1.00, 0.00, -0.00, -1.00, 753.8, 617.6)">p</text><text xml:space="preserve" font-family="Helvetica-Light,Helvetica" font-size="66.4" fill="#FEFFFF" transform="matrix(1.00, 0.00, -0.00, -1.00, 794.3, 617.6)">l</text><text xml:space="preserve" font-family="Helvetica-Light,Helvetica" font-size="66.4" fill="#FEFFFF" transform="matrix(1.00, 0.00, -0.00, -1.00, 809.1, 617.6)">e</text><text xml:space="preserve" font-family="Helvetica-Light,Helvetica" font-size="66.4" fill="#FEFFFF" transform="matrix(1.00, 0.00, -0.00, -1.00, 846.0, 617.6)"> </text><text xml:space="preserve" font-family="Helvetica-Light,Helvetica" font-size="66.4" fill="#FEFFFF" transform="matrix(1.00, 0.00, -0.00, -1.00, 864.4, 617.6)">(</text><text xml:space="preserve" font-family="Helvetica-Light,Helvetica" font-size="66.4" fill="#FEFFFF" transform="matrix(1.00, 0.00, -0.00, -1.00, 886.6, 617.6)">5</text><text xml:space="preserve" font-family="Helvetica-Light,Helvetica" font-size="66.4" fill="#FEFFFF" transform="matrix(1.00, 0.00, -0.00, -1.00, 923.5, 617.6)">)</text><text xml:space="preserve" font-family="Helvetica-LightOblique,Helvetica" font-style="italic" font-size="39.0" fill="#FEFFFF" transform="matrix(1.00, 0.00, -0.00, -1.00, 25.0, 706.3)">l</text><text xml:space="preserve" font-family="Helvetica-LightOblique,Helvetica" font-style="italic" font-size="39.0" fill="#FEFFFF" transform="matrix(1.00, 0.00, -0.00, -1.00, 33.7, 706.3)">e</text><text xml:space="preserve" font-family="Helvetica-LightOblique,Helvetica" font-style="italic" font-size="39.0" fill="#FEFFFF" transform="matrix(1.00, 0.00, -0.00, -1.00, 55.3, 706.3)">t</text><text xml:space="preserve" font-family="Helvetica-LightOblique,Helvetica" font-style="italic" font-size="39.0" fill="#FEFFFF" transform="matrix(1.00, 0.00, -0.00, -1.00, 66.2, 706.3)">s</text><text xml:space="preserve" font-family="Helvetica-LightOblique,Helvetica" font-style="italic" font-size="39.0" fill="#FEFFFF" transform="matrix(1.00, 0.00, -0.00, -1.00, 85.7, 706.3)"> </text><text xml:space="preserve" font-family="Helvetica-LightOblique,Helvetica" font-style="italic" font-size="39.0" fill="#FEFFFF" transform="matrix(1.00, 0.00, -0.00, -1.00, 96.5, 706.3)">m</text><text xml:space="preserve" font-family="Helvetica-LightOblique,Helvetica" font-style="italic" font-size="39.0" fill="#FEFFFF" transform="matrix(1.00, 0.00, -0.00, -1.00, 129.0, 706.3)">a</text><text xml:space="preserve" font-family="Helvetica-LightOblique,Helvetica" font-style="italic" font-size="39.0" fill="#FEFFFF" transform="matrix(1.00, 0.00, -0.00, -1.00, 150.7, 706.3)">k</text><text xml:space="preserve" font-family="Helvetica-LightOblique,Helvetica" font-style="italic" font-size="39.0" fill="#FEFFFF" transform="matrix(1.00, 0.00, -0.00, -1.00, 170.2, 706.3)">e</text><text xml:space="preserve" font-family="Helvetica-LightOblique,Helvetica" font-style="italic" font-size="39.0" fill="#FEFFFF" transform="matrix(1.00, 0.00, -0.00, -1.00, 191.9, 706.3)"> </text><text xml:space="preserve" font-family="Helvetica-LightOblique,Helvetica" font-style="italic" font-size="39.0" fill="#FEFFFF" transform="matrix(1.00, 0.00, -0.00, -1.00, 202.7, 706.3)">t</text><text xml:space="preserve" font-family="Helvetica-LightOblique,Helvetica" font-style="italic" font-size="39.0" fill="#FEFFFF" transform="matrix(1.00, 0.00, -0.00, -1.00, 213.6, 706.3)">h</text><text xml:space="preserve" font-family="Helvetica-LightOblique,Helvetica" font-style="italic" font-size="39.0" fill="#FEFFFF" transform="matrix(1.00, 0.00, -0.00, -1.00, 235.2, 706.3)">e</text><text xml:space="preserve" font-family="Helvetica-LightOblique,Helvetica" font-style="italic" font-size="39.0" fill="#FEFFFF" transform="matrix(1.00, 0.00, -0.00, -1.00, 256.9, 706.3)"> </text><text xml:space="preserve" font-family="Helvetica-LightOblique,Helvetica" font-style="italic" font-size="39.0" fill="#FEFFFF" transform="matrix(1.00, 0.00, -0.00, -1.00, 267.8, 706.3)">s</text><text xml:space="preserve" font-family="Helvetica-LightOblique,Helvetica" font-style="italic" font-size="39.0" fill="#FEFFFF" transform="matrix(1.00, 0.00, -0.00, -1.00, 287.3, 706.3)">n</text><text xml:space="preserve" font-family="Helvetica-LightOblique,Helvetica" font-style="italic" font-size="39.0" fill="#FEFFFF" transform="matrix(1.00, 0.00, -0.00, -1.00, 309.0, 706.3)">a</text><text xml:space="preserve" font-family="Helvetica-LightOblique,Helvetica" font-style="italic" font-size="39.0" fill="#FEFFFF" transform="matrix(1.00, 0.00, -0.00, -1.00, 330.6, 706.3)">k</text><text xml:space="preserve" font-family="Helvetica-LightOblique,Helvetica" font-style="italic" font-size="39.0" fill="#FEFFFF" transform="matrix(1.00, 0.00, -0.00, -1.00, 350.1, 706.3)">e</text><text xml:space="preserve" font-family="Helvetica-LightOblique,Helvetica" font-style="italic" font-size="39.0" fill="#FEFFFF" transform="matrix(1.00, 0.00, -0.00, -1.00, 371.8, 706.3)"> </text><text xml:space="preserve" font-family="Helvetica-LightOblique,Helvetica" font-style="italic" font-size="39.0" fill="#FEFFFF" transform="matrix(1.00, 0.00, -0.00, -1.00, 382.7, 706.3)">l</text><text xml:space="preserve" font-family="Helvetica-LightOblique,Helvetica" font-style="italic" font-size="39.0" fill="#FEFFFF" transform="matrix(1.00, 0.00, -0.00, -1.00, 391.3, 706.3)">o</text><text xml:space="preserve" font-family="Helvetica-LightOblique,Helvetica" font-style="italic" font-size="39.0" fill="#FEFFFF" transform="matrix(1.00, 0.00, -0.00, -1.00, 413.0, 706.3)">n</text><text xml:space="preserve" font-family="Helvetica-LightOblique,Helvetica" font-style="italic" font-size="39.0" fill="#FEFFFF" transform="matrix(1.00, 0.00, -0.00, -1.00, 434.7, 706.3)">g</text><text xml:space="preserve" font-family="Helvetica-LightOblique,Helvetica" font-style="italic" font-size="39.0" fill="#FEFFFF" transform="matrix(1.00, 0.00, -0.00, -1.00, 458.5, 706.3)">e</text><text xml:space="preserve" font-family="Helvetica-LightOblique,Helvetica" font-style="italic" font-size="39.0" fill="#FEFFFF" transform="matrix(1.00, 0.00, -0.00, -1.00, 480.2, 706.3)">r</text><text xml:space="preserve" font-family="Helvetica-LightOblique,Helvetica" font-style="italic" font-size="39.0" fill="#FEFFFF" transform="matrix(1.00, 0.00, -0.00, -1.00, 493.2, 706.3)"> </text><text xml:space="preserve" font-family="Helvetica-LightOblique,Helvetica" font-style="italic" font-size="39.0" fill="#FEFFFF" transform="matrix(1.00, 0.00, -0.00, -1.00, 504.0, 706.3)">a</text><text xml:space="preserve" font-family="Helvetica-LightOblique,Helvetica" font-style="italic" font-size="39.0" fill="#FEFFFF" transform="matrix(1.00, 0.00, -0.00, -1.00, 525.7, 706.3)">n</text><text xml:space="preserve" font-family="Helvetica-LightOblique,Helvetica" font-style="italic" font-size="39.0" fill="#FEFFFF" transform="matrix(1.00, 0.00, -0.00, -1.00, 547.4, 706.3)">d</text><text xml:space="preserve" font-family="Helvetica-LightOblique,Helvetica" font-style="italic" font-size="39.0" fill="#FEFFFF" transform="matrix(1.00, 0.00, -0.00, -1.00, 571.2, 706.3)"> </text><text xml:space="preserve" font-family="Helvetica-LightOblique,Helvetica" font-style="italic" font-size="39.0" fill="#FEFFFF" transform="matrix(1.00, 0.00, -0.00, -1.00, 582.1, 706.3)"> </text><text xml:space="preserve" font-family="Helvetica-LightOblique,Helvetica" font-style="italic" font-size="39.0" fill="#FEFFFF" transform="matrix(1.00, 0.00, -0.00, -1.00, 25.0, 659.3)">a</text><text xml:space="preserve" font-family="Helvetica-LightOblique,Helvetica" font-style="italic" font-size="39.0" fill="#FEFFFF" transform="matrix(1.00, 0.00, -0.00, -1.00, 46.7, 659.3)">d</text><text xml:space="preserve" font-family="Helvetica-LightOblique,Helvetica" font-style="italic" font-size="39.0" fill="#FEFFFF" transform="matrix(1.00, 0.00, -0.00, -1.00, 70.5, 659.3)">d</text><text xml:space="preserve" font-family="Helvetica-LightOblique,Helvetica" font-style="italic" font-size="39.0" fill="#FEFFFF" transform="matrix(1.00, 0.00, -0.00, -1.00, 94.3, 659.3)"> </text><text xml:space="preserve" font-family="Helvetica-LightOblique,Helvetica" font-style="italic" font-size="39.0" fill="#FEFFFF" transform="matrix(1.00, 0.00, -0.00, -1.00, 105.2, 659.3)">a</text><text xml:space="preserve" font-family="Helvetica-LightOblique,Helvetica" font-style="italic" font-size="39.0" fill="#FEFFFF" transform="matrix(1.00, 0.00, -0.00, -1.00, 126.9, 659.3)">n</text><text xml:space="preserve" font-family="Helvetica-LightOblique,Helvetica" font-style="italic" font-size="39.0" fill="#FEFFFF" transform="matrix(1.00, 0.00, -0.00, -1.00, 148.6, 659.3)">o</text><text xml:space="preserve" font-family="Helvetica-LightOblique,Helvetica" font-style="italic" font-size="39.0" fill="#FEFFFF" transform="matrix(1.00, 0.00, -0.00, -1.00, 170.2, 659.3)">t</text><text xml:space="preserve" font-family="Helvetica-LightOblique,Helvetica" font-style="italic" font-size="39.0" fill="#FEFFFF" transform="matrix(1.00, 0.00, -0.00, -1.00, 181.1, 659.3)">h</text><text xml:space="preserve" font-family="Helvetica-LightOblique,Helvetica" font-style="italic" font-size="39.0" fill="#FEFFFF" transform="matrix(1.00, 0.00, -0.00, -1.00, 202.8, 659.3)">e</text><text xml:space="preserve" font-family="Helvetica-LightOblique,Helvetica" font-style="italic" font-size="39.0" fill="#FEFFFF" transform="matrix(1.00, 0.00, -0.00, -1.00, 224.4, 659.3)">r</text><text xml:space="preserve" font-family="Helvetica-LightOblique,Helvetica" font-style="italic" font-size="39.0" fill="#FEFFFF" transform="matrix(1.00, 0.00, -0.00, -1.00, 237.4, 659.3)"> </text><text xml:space="preserve" font-family="Helvetica-LightOblique,Helvetica" font-style="italic" font-size="39.0" fill="#FEFFFF" transform="matrix(1.00, 0.00, -0.00, -1.00, 248.3, 659.3)">h</text><text xml:space="preserve" font-family="Helvetica-LightOblique,Helvetica" font-style="italic" font-size="39.0" fill="#FEFFFF" transform="matrix(1.00, 0.00, -0.00, -1.00, 270.0, 659.3)">e</text><text xml:space="preserve" font-family="Helvetica-LightOblique,Helvetica" font-style="italic" font-size="39.0" fill="#FEFFFF" transform="matrix(1.00, 0.00, -0.00, -1.00, 291.6, 659.3)">a</text><text xml:space="preserve" font-family="Helvetica-LightOblique,Helvetica" font-style="italic" font-size="39.0" fill="#FEFFFF" transform="matrix(1.00, 0.00, -0.00, -1.00, 313.3, 659.3)">d</text><text xml:space="preserve" font-family="Helvetica-LightOblique,Helvetica" font-style="italic" font-size="39.0" fill="#FEFFFF" transform="matrix(1.00, 0.00, -0.00, -1.00, 337.2, 659.3)"> </text><g><clipPath id="clip0x6080096a9de0"><path d="M 143.0 595.0 L 680.0 595.0 L 680.0 161.0 L 143.0 161.0 Z M 142.6 594.7 "></path></clipPath><g clip-path="url(#clip0x6080096a9de0)"><g><clipPath id="clip0x6000076b3f80"><path d="M 500.0 162.0 C 509.6 162.4 517.3 163.3 517.3 164.0 C 517.3 166.2 505.8 168.4 498.4 168.0 L 491.0 168.0 L 491.0 177.6 C 491.0 183.5 491.9 187.4 492.9 187.7 C 494.3 188.2 494.7 221.3 493.3 223.6 C 492.9 224.1 490.1 223.4 487.0 222.0 C 474.7 216.4 462.4 220.5 449.3 234.5 C 426.0 259.1 418.4 264.8 408.3 264.8 C 398.9 264.8 394.0 261.5 370.9 239.9 C 358.6 228.4 354.2 225.5 337.0 217.2 C 319.5 208.8 305.8 209.8 294.0 220.5 C 287.2 226.6 285.0 231.2 285.0 238.9 C 285.0 253.4 296.3 266.5 332.2 293.5 C 346.2 303.9 358.6 313.7 360.0 315.1 C 363.8 319.4 360.1 320.1 355.4 316.1 C 349.5 311.2 342.9 308.7 335.7 308.8 C 325.2 308.8 319.2 312.7 301.9 330.7 C 279.7 353.9 270.2 358.2 257.4 350.9 C 249.7 346.4 217.0 316.6 218.0 315.0 C 218.5 314.2 217.9 314.0 216.6 314.5 C 215.3 315.0 211.7 313.7 207.7 311.4 C 204.0 309.2 200.7 307.4 200.3 307.4 C 200.0 307.4 196.6 305.9 192.8 304.1 C 171.8 293.9 145.1 307.0 145.1 327.5 C 145.1 342.6 156.8 356.0 194.4 384.2 C 218.4 402.2 228.2 411.3 227.4 415.1 C 227.1 416.8 224.3 417.7 215.0 418.9 C 194.0 421.8 174.3 430.8 159.7 444.4 C 150.3 453.1 147.0 458.9 144.4 471.2 C 140.8 488.2 141.6 491.4 156.1 518.5 C 163.1 531.5 163.8 533.4 163.2 539.2 C 162.8 542.8 162.2 546.7 161.7 547.9 C 161.2 549.1 161.5 550.9 162.3 551.9 C 164.1 554.1 159.3 563.5 153.0 570.2 C 146.7 577.0 149.5 576.1 157.3 568.8 C 161.2 565.1 164.9 562.1 165.4 562.1 C 166.0 562.1 166.5 561.3 166.5 560.4 C 166.5 559.5 167.9 557.1 169.6 555.0 L 172.6 551.3 L 177.0 558.4 C 179.5 562.3 182.9 567.6 184.6 570.3 C 189.5 578.1 198.0 585.5 207.6 590.3 C 216.0 594.5 217.1 594.7 231.0 594.7 C 244.6 594.6 246.3 594.3 254.6 590.5 C 265.8 585.2 275.4 576.4 280.9 566.1 C 283.2 561.7 285.6 558.1 286.2 558.1 C 286.8 558.1 287.7 556.8 288.1 555.2 C 288.7 552.7 290.0 553.5 300.5 563.2 C 306.9 569.2 312.6 574.1 313.2 574.1 C 313.7 574.1 311.1 570.2 307.3 565.4 C 301.3 557.9 300.4 555.9 300.2 550.4 C 300.1 546.9 299.3 541.4 298.6 538.1 C 297.4 533.1 297.6 531.4 299.7 527.5 C 301.0 524.9 304.3 517.4 307.0 510.8 C 309.7 504.2 313.4 495.5 315.3 491.5 C 318.4 484.8 318.6 483.7 317.3 475.3 C 315.6 464.2 311.5 458.0 297.5 444.9 C 285.8 434.0 269.1 424.9 253.2 420.9 C 243.8 418.6 243.3 418.3 240.9 412.9 C 237.1 404.3 227.6 393.0 211.8 378.3 C 203.9 370.9 195.5 362.0 193.2 358.6 C 188.4 351.2 187.7 344.3 191.7 342.1 C 201.3 337.0 228.1 348.3 246.3 365.3 C 250.3 369.1 256.7 374.6 260.3 377.5 C 283.4 396.0 290.4 394.3 314.5 364.5 C 329.6 345.7 336.3 341.3 346.6 343.0 C 349.6 343.5 353.5 345.2 355.2 347.0 C 356.9 348.7 359.3 350.1 360.4 350.1 C 361.5 350.1 364.9 352.2 368.0 354.8 L 374.0 359.6 L 374.0 353.9 C 374.3 350.0 375.5 346.9 378.2 343.9 C 389.1 331.5 382.6 318.7 349.0 286.7 C 330.2 268.8 325.2 259.2 331.6 253.4 C 333.7 251.5 335.5 251.2 340.9 251.8 C 350.7 253.0 370.5 263.0 380.8 271.9 C 399.3 288.0 409.7 295.9 415.3 298.4 C 426.8 303.6 435.1 299.3 450.6 280.3 C 469.5 257.1 476.9 251.9 487.6 254.3 C 498.2 256.7 502.8 262.5 497.7 267.0 C 490.8 273.2 477.9 291.0 476.0 296.8 C 475.9 297.1 475.4 298.3 475.0 299.4 C 469.9 311.1 468.6 319.3 468.9 336.8 C 469.1 352.8 468.8 355.6 466.0 362.8 C 463.4 369.5 463.2 373.6 463.0 388.1 L 462.0 405.4 L 458.2 406.6 C 454.7 407.6 454.1 408.4 454.1 412.2 C 454.1 417.4 455.9 418.7 465.4 420.0 C 469.1 420.6 472.7 421.4 473.4 421.8 C 474.1 422.3 479.5 422.8 485.4 423.1 C 491.2 423.3 496.7 423.7 497.6 424.0 C 499.4 424.7 500.7 428.8 505.4 448.8 C 507.3 457.2 509.6 464.8 510.5 465.6 C 514.6 469.8 526.8 471.7 555.4 472.4 C 585.8 473.2 605.9 471.7 615.2 468.0 C 621.0 465.6 620.4 467.0 627.9 438.8 C 629.9 431.4 631.9 425.0 632.4 424.5 C 632.8 423.9 639.5 423.3 647.2 423.0 C 654.9 422.7 662.8 421.8 664.9 421.0 C 667.0 420.1 669.8 419.4 671.1 419.4 C 672.5 419.4 675.2 418.8 677.0 418.1 C 679.8 417.1 680.5 415.9 680.5 412.4 C 680.5 408.8 679.8 407.7 676.9 406.7 L 673.0 405.4 L 673.0 388.1 C 672.7 367.9 669.9 357.8 660.8 345.3 C 659.0 342.7 657.8 339.2 657.8 336.0 C 657.7 329.1 653.5 309.9 650.1 301.1 C 648.6 297.2 647.4 293.7 647.4 293.3 C 647.5 292.8 645.6 289.9 643.4 286.6 C 641.1 283.4 639.2 280.4 639.3 280.0 C 639.3 279.6 635.4 275.4 630.6 270.6 C 623.6 263.6 622.0 261.2 622.6 258.8 C 623.2 256.4 622.6 255.5 619.3 254.1 C 612.7 251.4 612.2 249.9 615.4 242.6 C 618.2 236.4 623.1 219.2 623.2 215.8 C 623.2 214.9 621.9 214.3 620.2 214.4 C 616.6 214.8 616.6 214.3 619.8 197.7 C 622.0 185.8 622.1 184.5 620.1 183.0 C 618.0 181.4 616.6 171.8 618.2 169.4 C 618.7 168.6 615.4 168.3 610.0 168.5 C 600.4 169.0 589.6 165.9 592.0 163.4 C 592.7 162.7 601.4 162.0 611.2 161.8 C 621.1 161.5 596.2 161.3 556.0 161.3 C 515.7 161.3 490.5 161.6 500.0 162.0 "></path></clipPath><g clip-path="url(#clip0x6000076b3f80)"><image xlink:href="60E053D2155BFFE15F455054AC50CA97.png" width="791.00" height="648.00" transform="matrix(1.00, 0.00, -0.00, -1.00, 124.0, 611.0)"></image></g></g></g></g></g></svg>