<?xml version="1.0" encoding="UTF-8" standalone="no"?><svg xmlns="http://www.w3.org/2000/svg" xmlns:xlink="http://www.w3.org/1999/xlink" clip-rule="evenodd" stroke-miterlimit="10" viewBox="0 0 1024 768"><desc>SVG generated by Keynote</desc><defs></defs><g transform="matrix(1.00, 0.00, -0.00, -1.00, 0.0, 768.0)"><g><clipPath id="clip0x608007abf2c0"><path d="M 0.0 768.0 L 1024.0 768.0 L 1024.0 0.0 L 0.0 0.0 Z M 0.0 768.0 "></path></clipPath><g clip-path="url(#clip0x608007abf2c0)"><image xlink:href="../../D1633A7A-1E45-48FF-BA06-56002168097B/assets/4E131E180F71435CE7831D195B770FC0.jpeg" width="2048.00" height="1536.00" transform="matrix(0.50, 0.00, -0.00, -0.50, 0.0, 768.0)"></image></g></g><text xml:space="preserve" font-family="Helvetica-Light,Helvetica" font-size="69.6" fill="#FEFFFF" transform="matrix(1.00, 0.00, -0.00, -1.00, 82.7, 667.3)">M</text><text xml:space="preserve" font-family="Helvetica-Light,Helvetica" font-size="69.6" fill="#FEFFFF" transform="matrix(1.00, 0.00, -0.00, -1.00, 140.7, 667.3)">o</text><text xml:space="preserve" font-family="Helvetica-Light,Helvetica" font-size="69.6" fill="#FEFFFF" transform="matrix(1.00, 0.00, -0.00, -1.00, 179.4, 667.3)">n</text><text xml:space="preserve" font-family="Helvetica-Light,Helvetica" font-size="69.6" fill="#FEFFFF" transform="matrix(1.00, 0.00, -0.00, -1.00, 218.1, 667.3)">s</text><text xml:space="preserve" font-family="Helvetica-Light,Helvetica" font-size="69.6" fill="#FEFFFF" transform="matrix(1.00, 0.00, -0.00, -1.00, 252.9, 667.3)">t</text><text xml:space="preserve" font-family="Helvetica-Light,Helvetica" font-size="69.6" fill="#FEFFFF" transform="matrix(1.00, 0.00, -0.00, -1.00, 272.2, 667.3)">e</text><text xml:space="preserve" font-family="Helvetica-Light,Helvetica" font-size="69.6" fill="#FEFFFF" transform="matrix(1.00, 0.00, -0.00, -1.00, 310.9, 667.3)">r</text><text xml:space="preserve" font-family="Helvetica-Light,Helvetica" font-size="69.6" fill="#FEFFFF" transform="matrix(1.00, 0.00, -0.00, -1.00, 334.1, 667.3)"> </text><text xml:space="preserve" font-family="Helvetica-Light,Helvetica" font-size="69.6" fill="#FEFFFF" transform="matrix(1.00, 0.00, -0.00, -1.00, 353.5, 667.3)">M</text><text xml:space="preserve" font-family="Helvetica-Light,Helvetica" font-size="69.6" fill="#FEFFFF" transform="matrix(1.00, 0.00, -0.00, -1.00, 411.4, 667.3)">a</text><text xml:space="preserve" font-family="Helvetica-Light,Helvetica" font-size="69.6" fill="#FEFFFF" transform="matrix(1.00, 0.00, -0.00, -1.00, 450.1, 667.3)">r</text><text xml:space="preserve" font-family="Helvetica-Light,Helvetica" font-size="69.6" fill="#FEFFFF" transform="matrix(1.00, 0.00, -0.00, -1.00, 473.3, 667.3)">k</text><text xml:space="preserve" font-family="Helvetica-Light,Helvetica" font-size="69.6" fill="#FEFFFF" transform="matrix(1.00, 0.00, -0.00, -1.00, 508.1, 667.3)">u</text><text xml:space="preserve" font-family="Helvetica-Light,Helvetica" font-size="69.6" fill="#FEFFFF" transform="matrix(1.00, 0.00, -0.00, -1.00, 546.8, 667.3)">p</text><text xml:space="preserve" font-family="Helvetica-Light,Helvetica" font-size="69.6" fill="#FEFFFF" transform="matrix(1.00, 0.00, -0.00, -1.00, 589.3, 667.3)"> </text><text xml:space="preserve" font-family="Helvetica-Light,Helvetica" font-size="69.6" fill="#FEFFFF" transform="matrix(1.00, 0.00, -0.00, -1.00, 608.7, 667.3)">(</text><text xml:space="preserve" font-family="Helvetica-Light,Helvetica" font-size="69.6" fill="#FEFFFF" transform="matrix(1.00, 0.00, -0.00, -1.00, 631.9, 667.3)">R</text><text xml:space="preserve" font-family="Helvetica-Light,Helvetica" font-size="69.6" fill="#FEFFFF" transform="matrix(1.00, 0.00, -0.00, -1.00, 678.3, 667.3)">e</text><text xml:space="preserve" font-family="Helvetica-Light,Helvetica" font-size="69.6" fill="#FEFFFF" transform="matrix(1.00, 0.00, -0.00, -1.00, 717.0, 667.3)">l</text><text xml:space="preserve" font-family="Helvetica-Light,Helvetica" font-size="69.6" fill="#FEFFFF" transform="matrix(1.00, 0.00, -0.00, -1.00, 732.4, 667.3)">a</text><text xml:space="preserve" font-family="Helvetica-Light,Helvetica" font-size="69.6" fill="#FEFFFF" transform="matrix(1.00, 0.00, -0.00, -1.00, 771.1, 667.3)">t</text><text xml:space="preserve" font-family="Helvetica-Light,Helvetica" font-size="69.6" fill="#FEFFFF" transform="matrix(1.00, 0.00, -0.00, -1.00, 790.5, 667.3)">i</text><text xml:space="preserve" font-family="Helvetica-Light,Helvetica" font-size="69.6" fill="#FEFFFF" transform="matrix(1.00, 0.00, -0.00, -1.00, 805.9, 667.3)">o</text><text xml:space="preserve" font-family="Helvetica-Light,Helvetica" font-size="69.6" fill="#FEFFFF" transform="matrix(1.00, 0.00, -0.00, -1.00, 844.6, 667.3)">n</text><text xml:space="preserve" font-family="Helvetica-Light,Helvetica" font-size="69.6" fill="#FEFFFF" transform="matrix(1.00, 0.00, -0.00, -1.00, 883.3, 667.3)">s</text><text xml:space="preserve" font-family="Helvetica-Light,Helvetica" font-size="69.6" fill="#FEFFFF" transform="matrix(1.00, 0.00, -0.00, -1.00, 918.1, 667.3)">)</text><text xml:space="preserve" font-family="Helvetica,Helvetica" font-size="38.0" fill="#FEFFFF" transform="matrix(1.00, 0.00, -0.00, -1.00, 115.0, 555.4)">A</text><text xml:space="preserve" font-family="Helvetica,Helvetica" font-size="38.0" fill="#FEFFFF" transform="matrix(1.00, 0.00, -0.00, -1.00, 138.3, 555.4)"> </text><text xml:space="preserve" font-family="Helvetica,Helvetica" font-size="38.0" fill="#FEFFFF" transform="matrix(1.00, 0.00, -0.00, -1.00, 148.8, 555.4)">r</text><text xml:space="preserve" font-family="Helvetica,Helvetica" font-size="38.0" fill="#FEFFFF" transform="matrix(1.00, 0.00, -0.00, -1.00, 161.5, 555.4)">e</text><text xml:space="preserve" font-family="Helvetica,Helvetica" font-size="38.0" fill="#FEFFFF" transform="matrix(1.00, 0.00, -0.00, -1.00, 182.6, 555.4)">l</text><text xml:space="preserve" font-family="Helvetica,Helvetica" font-size="38.0" fill="#FEFFFF" transform="matrix(1.00, 0.00, -0.00, -1.00, 191.1, 555.4)">a</text><text xml:space="preserve" font-family="Helvetica,Helvetica" font-size="38.0" fill="#FEFFFF" transform="matrix(1.00, 0.00, -0.00, -1.00, 212.2, 555.4)">t</text><text xml:space="preserve" font-family="Helvetica,Helvetica" font-size="38.0" fill="#FEFFFF" transform="matrix(1.00, 0.00, -0.00, -1.00, 222.8, 555.4)">i</text><text xml:space="preserve" font-family="Helvetica,Helvetica" font-size="38.0" fill="#FEFFFF" transform="matrix(1.00, 0.00, -0.00, -1.00, 231.2, 555.4)">o</text><text xml:space="preserve" font-family="Helvetica,Helvetica" font-size="38.0" fill="#FEFFFF" transform="matrix(1.00, 0.00, -0.00, -1.00, 252.3, 555.4)">n</text><text xml:space="preserve" font-family="Helvetica,Helvetica" font-size="38.0" fill="#FEFFFF" transform="matrix(1.00, 0.00, -0.00, -1.00, 273.5, 555.4)"> </text><text xml:space="preserve" font-family="Helvetica,Helvetica" font-size="38.0" fill="#FEFFFF" transform="matrix(1.00, 0.00, -0.00, -1.00, 284.0, 555.4)">b</text><text xml:space="preserve" font-family="Helvetica,Helvetica" font-size="38.0" fill="#FEFFFF" transform="matrix(1.00, 0.00, -0.00, -1.00, 305.2, 555.4)">e</text><text xml:space="preserve" font-family="Helvetica,Helvetica" font-size="38.0" fill="#FEFFFF" transform="matrix(1.00, 0.00, -0.00, -1.00, 326.3, 555.4)">t</text><text xml:space="preserve" font-family="Helvetica,Helvetica" font-size="38.0" fill="#FEFFFF" transform="matrix(1.00, 0.00, -0.00, -1.00, 336.9, 555.4)">w</text><text xml:space="preserve" font-family="Helvetica,Helvetica" font-size="38.0" fill="#FEFFFF" transform="matrix(1.00, 0.00, -0.00, -1.00, 364.3, 555.4)">e</text><text xml:space="preserve" font-family="Helvetica,Helvetica" font-size="38.0" fill="#FEFFFF" transform="matrix(1.00, 0.00, -0.00, -1.00, 385.5, 555.4)">e</text><text xml:space="preserve" font-family="Helvetica,Helvetica" font-size="38.0" fill="#FEFFFF" transform="matrix(1.00, 0.00, -0.00, -1.00, 406.6, 555.4)">n</text><text xml:space="preserve" font-family="Helvetica,Helvetica" font-size="38.0" fill="#FEFFFF" transform="matrix(1.00, 0.00, -0.00, -1.00, 427.7, 555.4)"> </text><text xml:space="preserve" font-family="Helvetica,Helvetica" font-size="38.0" fill="#FEFFFF" transform="matrix(1.00, 0.00, -0.00, -1.00, 438.3, 555.4)">t</text><text xml:space="preserve" font-family="Helvetica,Helvetica" font-size="38.0" fill="#FEFFFF" transform="matrix(1.00, 0.00, -0.00, -1.00, 448.8, 555.4)">w</text><text xml:space="preserve" font-family="Helvetica,Helvetica" font-size="38.0" fill="#FEFFFF" transform="matrix(1.00, 0.00, -0.00, -1.00, 476.3, 555.4)">o</text><text xml:space="preserve" font-family="Helvetica,Helvetica" font-size="38.0" fill="#FEFFFF" transform="matrix(1.00, 0.00, -0.00, -1.00, 497.4, 555.4)"> </text><text xml:space="preserve" font-family="Helvetica,Helvetica" font-size="38.0" fill="#FEFFFF" transform="matrix(1.00, 0.00, -0.00, -1.00, 508.0, 555.4)">i</text><text xml:space="preserve" font-family="Helvetica,Helvetica" font-size="38.0" fill="#FEFFFF" transform="matrix(1.00, 0.00, -0.00, -1.00, 516.4, 555.4)">n</text><text xml:space="preserve" font-family="Helvetica,Helvetica" font-size="38.0" fill="#FEFFFF" transform="matrix(1.00, 0.00, -0.00, -1.00, 537.6, 555.4)">d</text><text xml:space="preserve" font-family="Helvetica,Helvetica" font-size="38.0" fill="#FEFFFF" transform="matrix(1.00, 0.00, -0.00, -1.00, 558.7, 555.4)">i</text><text xml:space="preserve" font-family="Helvetica,Helvetica" font-size="38.0" fill="#FEFFFF" transform="matrix(1.00, 0.00, -0.00, -1.00, 567.2, 555.4)">v</text><text xml:space="preserve" font-family="Helvetica,Helvetica" font-size="38.0" fill="#FEFFFF" transform="matrix(1.00, 0.00, -0.00, -1.00, 586.2, 555.4)">i</text><text xml:space="preserve" font-family="Helvetica,Helvetica" font-size="38.0" fill="#FEFFFF" transform="matrix(1.00, 0.00, -0.00, -1.00, 594.6, 555.4)">d</text><text xml:space="preserve" font-family="Helvetica,Helvetica" font-size="38.0" fill="#FEFFFF" transform="matrix(1.00, 0.00, -0.00, -1.00, 615.8, 555.4)">u</text><text xml:space="preserve" font-family="Helvetica,Helvetica" font-size="38.0" fill="#FEFFFF" transform="matrix(1.00, 0.00, -0.00, -1.00, 636.9, 555.4)">a</text><text xml:space="preserve" font-family="Helvetica,Helvetica" font-size="38.0" fill="#FEFFFF" transform="matrix(1.00, 0.00, -0.00, -1.00, 658.0, 555.4)">l</text><text xml:space="preserve" font-family="Helvetica,Helvetica" font-size="38.0" fill="#FEFFFF" transform="matrix(1.00, 0.00, -0.00, -1.00, 666.5, 555.4)">s</text><text xml:space="preserve" font-family="Helvetica,Helvetica" font-size="38.0" fill="#FEFFFF" transform="matrix(1.00, 0.00, -0.00, -1.00, 685.5, 555.4)"> </text><text xml:space="preserve" font-family="Helvetica,Helvetica" font-size="38.0" fill="#FEFFFF" transform="matrix(1.00, 0.00, -0.00, -1.00, 696.0, 555.4)">c</text><text xml:space="preserve" font-family="Helvetica,Helvetica" font-size="38.0" fill="#FEFFFF" transform="matrix(1.00, 0.00, -0.00, -1.00, 715.0, 555.4)">o</text><text xml:space="preserve" font-family="Helvetica,Helvetica" font-size="38.0" fill="#FEFFFF" transform="matrix(1.00, 0.00, -0.00, -1.00, 736.2, 555.4)">n</text><text xml:space="preserve" font-family="Helvetica,Helvetica" font-size="38.0" fill="#FEFFFF" transform="matrix(1.00, 0.00, -0.00, -1.00, 757.3, 555.4)">n</text><text xml:space="preserve" font-family="Helvetica,Helvetica" font-size="38.0" fill="#FEFFFF" transform="matrix(1.00, 0.00, -0.00, -1.00, 778.5, 555.4)">e</text><text xml:space="preserve" font-family="Helvetica,Helvetica" font-size="38.0" fill="#FEFFFF" transform="matrix(1.00, 0.00, -0.00, -1.00, 799.6, 555.4)">c</text><text xml:space="preserve" font-family="Helvetica,Helvetica" font-size="38.0" fill="#FEFFFF" transform="matrix(1.00, 0.00, -0.00, -1.00, 818.6, 555.4)">t</text><text xml:space="preserve" font-family="Helvetica,Helvetica" font-size="38.0" fill="#FEFFFF" transform="matrix(1.00, 0.00, -0.00, -1.00, 829.2, 555.4)">s</text><text xml:space="preserve" font-family="Helvetica,Helvetica" font-size="38.0" fill="#FEFFFF" transform="matrix(1.00, 0.00, -0.00, -1.00, 848.2, 555.4)"> </text><text xml:space="preserve" font-family="Helvetica,Helvetica" font-size="38.0" fill="#FEFFFF" transform="matrix(1.00, 0.00, -0.00, -1.00, 858.7, 555.4)">b</text><text xml:space="preserve" font-family="Helvetica,Helvetica" font-size="38.0" fill="#FEFFFF" transform="matrix(1.00, 0.00, -0.00, -1.00, 879.8, 555.4)">o</text><text xml:space="preserve" font-family="Helvetica,Helvetica" font-size="38.0" fill="#FEFFFF" transform="matrix(1.00, 0.00, -0.00, -1.00, 901.0, 555.4)">t</text><text xml:space="preserve" font-family="Helvetica,Helvetica" font-size="38.0" fill="#FEFFFF" transform="matrix(1.00, 0.00, -0.00, -1.00, 911.5, 555.4)">h</text><text xml:space="preserve" font-family="Helvetica,Helvetica" font-size="38.0" fill="#FEFFFF" transform="matrix(1.00, 0.00, -0.00, -1.00, 932.7, 555.4)"> </text><text xml:space="preserve" font-family="Helvetica,Helvetica" font-size="38.0" fill="#FEFFFF" transform="matrix(1.00, 0.00, -0.00, -1.00, 115.0, 509.4)">a</text><text xml:space="preserve" font-family="Helvetica,Helvetica" font-size="38.0" fill="#FEFFFF" transform="matrix(1.00, 0.00, -0.00, -1.00, 136.1, 509.4)">t</text><text xml:space="preserve" font-family="Helvetica,Helvetica" font-size="38.0" fill="#FEFFFF" transform="matrix(1.00, 0.00, -0.00, -1.00, 146.7, 509.4)"> </text><text xml:space="preserve" font-family="Helvetica,Helvetica" font-size="38.0" fill="#FEFFFF" transform="matrix(1.00, 0.00, -0.00, -1.00, 157.2, 509.4)">t</text><text xml:space="preserve" font-family="Helvetica,Helvetica" font-size="38.0" fill="#FEFFFF" transform="matrix(1.00, 0.00, -0.00, -1.00, 167.8, 509.4)">h</text><text xml:space="preserve" font-family="Helvetica,Helvetica" font-size="38.0" fill="#FEFFFF" transform="matrix(1.00, 0.00, -0.00, -1.00, 188.9, 509.4)">e</text><text xml:space="preserve" font-family="Helvetica,Helvetica" font-size="38.0" fill="#FEFFFF" transform="matrix(1.00, 0.00, -0.00, -1.00, 210.1, 509.4)"> </text><text xml:space="preserve" font-family="Helvetica,Helvetica" font-size="38.0" fill="#FEFFFF" transform="matrix(1.00, 0.00, -0.00, -1.00, 220.6, 509.4)">g</text><text xml:space="preserve" font-family="Helvetica,Helvetica" font-size="38.0" fill="#FEFFFF" transform="matrix(1.00, 0.00, -0.00, -1.00, 241.8, 509.4)">i</text><text xml:space="preserve" font-family="Helvetica,Helvetica" font-size="38.0" fill="#FEFFFF" transform="matrix(1.00, 0.00, -0.00, -1.00, 250.2, 509.4)">v</text><text xml:space="preserve" font-family="Helvetica,Helvetica" font-size="38.0" fill="#FEFFFF" transform="matrix(1.00, 0.00, -0.00, -1.00, 269.2, 509.4)">e</text><text xml:space="preserve" font-family="Helvetica,Helvetica" font-size="38.0" fill="#FEFFFF" transform="matrix(1.00, 0.00, -0.00, -1.00, 290.4, 509.4)">n</text><text xml:space="preserve" font-family="Helvetica,Helvetica" font-size="38.0" fill="#FEFFFF" transform="matrix(1.00, 0.00, -0.00, -1.00, 311.5, 509.4)"> </text><text xml:space="preserve" font-family="Helvetica,Helvetica" font-size="38.0" fill="#FEFFFF" transform="matrix(1.00, 0.00, -0.00, -1.00, 322.0, 509.4)">p</text><text xml:space="preserve" font-family="Helvetica,Helvetica" font-size="38.0" fill="#FEFFFF" transform="matrix(1.00, 0.00, -0.00, -1.00, 343.2, 509.4)">o</text><text xml:space="preserve" font-family="Helvetica,Helvetica" font-size="38.0" fill="#FEFFFF" transform="matrix(1.00, 0.00, -0.00, -1.00, 364.3, 509.4)">i</text><text xml:space="preserve" font-family="Helvetica,Helvetica" font-size="38.0" fill="#FEFFFF" transform="matrix(1.00, 0.00, -0.00, -1.00, 372.8, 509.4)">n</text><text xml:space="preserve" font-family="Helvetica,Helvetica" font-size="38.0" fill="#FEFFFF" transform="matrix(1.00, 0.00, -0.00, -1.00, 393.9, 509.4)">t</text><text xml:space="preserve" font-family="Helvetica,Helvetica" font-size="38.0" fill="#FEFFFF" transform="matrix(1.00, 0.00, -0.00, -1.00, 404.5, 509.4)">.</text><text xml:space="preserve" font-family="LucidaConsole,Lucida Console" font-size="25.0" fill="#FEFFFF" transform="matrix(1.00, 0.00, -0.00, -1.00, 133.9, 320.6)">{</text><text xml:space="preserve" font-family="LucidaConsole,Lucida Console" font-size="25.0" fill="#FEFFFF" transform="matrix(1.00, 0.00, -0.00, -1.00, 148.9, 320.6)"> </text><text xml:space="preserve" font-family="LucidaConsole,Lucida Console" font-size="25.0" fill="#FEFFFF" transform="matrix(1.00, 0.00, -0.00, -1.00, 133.9, 295.6)"> </text><text xml:space="preserve" font-family="LucidaConsole,Lucida Console" font-size="25.0" fill="#FEFFFF" transform="matrix(1.00, 0.00, -0.00, -1.00, 148.9, 295.6)"> </text><text xml:space="preserve" font-family="LucidaConsole,Lucida Console" font-size="25.0" fill="#FEFFFF" transform="matrix(1.00, 0.00, -0.00, -1.00, 164.0, 295.6)">"</text><text xml:space="preserve" font-family="LucidaConsole,Lucida Console" font-size="25.0" fill="#FEFFFF" transform="matrix(1.00, 0.00, -0.00, -1.00, 179.0, 295.6)">I</text><text xml:space="preserve" font-family="LucidaConsole,Lucida Console" font-size="25.0" fill="#FEFFFF" transform="matrix(1.00, 0.00, -0.00, -1.00, 194.1, 295.6)">n</text><text xml:space="preserve" font-family="LucidaConsole,Lucida Console" font-size="25.0" fill="#FEFFFF" transform="matrix(1.00, 0.00, -0.00, -1.00, 209.1, 295.6)">d</text><text xml:space="preserve" font-family="LucidaConsole,Lucida Console" font-size="25.0" fill="#FEFFFF" transform="matrix(1.00, 0.00, -0.00, -1.00, 224.2, 295.6)">i</text><text xml:space="preserve" font-family="LucidaConsole,Lucida Console" font-size="25.0" fill="#FEFFFF" transform="matrix(1.00, 0.00, -0.00, -1.00, 239.2, 295.6)">v</text><text xml:space="preserve" font-family="LucidaConsole,Lucida Console" font-size="25.0" fill="#FEFFFF" transform="matrix(1.00, 0.00, -0.00, -1.00, 254.3, 295.6)">i</text><text xml:space="preserve" font-family="LucidaConsole,Lucida Console" font-size="25.0" fill="#FEFFFF" transform="matrix(1.00, 0.00, -0.00, -1.00, 269.3, 295.6)">d</text><text xml:space="preserve" font-family="LucidaConsole,Lucida Console" font-size="25.0" fill="#FEFFFF" transform="matrix(1.00, 0.00, -0.00, -1.00, 284.4, 295.6)">u</text><text xml:space="preserve" font-family="LucidaConsole,Lucida Console" font-size="25.0" fill="#FEFFFF" transform="matrix(1.00, 0.00, -0.00, -1.00, 299.4, 295.6)">a</text><text xml:space="preserve" font-family="LucidaConsole,Lucida Console" font-size="25.0" fill="#FEFFFF" transform="matrix(1.00, 0.00, -0.00, -1.00, 314.5, 295.6)">l</text><text xml:space="preserve" font-family="LucidaConsole,Lucida Console" font-size="25.0" fill="#FEFFFF" transform="matrix(1.00, 0.00, -0.00, -1.00, 329.5, 295.6)">1</text><text xml:space="preserve" font-family="LucidaConsole,Lucida Console" font-size="25.0" fill="#FEFFFF" transform="matrix(1.00, 0.00, -0.00, -1.00, 344.6, 295.6)">"</text><text xml:space="preserve" font-family="LucidaConsole,Lucida Console" font-size="25.0" fill="#FEFFFF" transform="matrix(1.00, 0.00, -0.00, -1.00, 359.6, 295.6)">:</text><text xml:space="preserve" font-family="LucidaConsole,Lucida Console" font-size="25.0" fill="#FEFFFF" transform="matrix(1.00, 0.00, -0.00, -1.00, 374.7, 295.6)"> </text><text xml:space="preserve" font-family="LucidaConsole,Lucida Console" font-size="25.0" fill="#FEFFFF" transform="matrix(1.00, 0.00, -0.00, -1.00, 389.7, 295.6)">"</text><text xml:space="preserve" font-family="LucidaConsole,Lucida Console" font-size="25.0" fill="#FEFFFF" transform="matrix(1.00, 0.00, -0.00, -1.00, 404.8, 295.6)">h</text><text xml:space="preserve" font-family="LucidaConsole,Lucida Console" font-size="25.0" fill="#FEFFFF" transform="matrix(1.00, 0.00, -0.00, -1.00, 420.1, 295.6)">"</text><text xml:space="preserve" font-family="LucidaConsole,Lucida Console" font-size="25.0" fill="#FEFFFF" transform="matrix(1.00, 0.00, -0.00, -1.00, 435.1, 295.6)">,</text><text xml:space="preserve" font-family="LucidaConsole,Lucida Console" font-size="25.0" fill="#FEFFFF" transform="matrix(1.00, 0.00, -0.00, -1.00, 450.2, 295.6)"> </text><text xml:space="preserve" font-family="LucidaConsole,Lucida Console" font-size="25.0" fill="#FEFFFF" transform="matrix(1.00, 0.00, -0.00, -1.00, 133.9, 270.6)"> </text><text xml:space="preserve" font-family="LucidaConsole,Lucida Console" font-size="25.0" fill="#FEFFFF" transform="matrix(1.00, 0.00, -0.00, -1.00, 148.9, 270.6)"> </text><text xml:space="preserve" font-family="LucidaConsole,Lucida Console" font-size="25.0" fill="#FEFFFF" transform="matrix(1.00, 0.00, -0.00, -1.00, 164.0, 270.6)">"</text><text xml:space="preserve" font-family="LucidaConsole,Lucida Console" font-size="25.0" fill="#FEFFFF" transform="matrix(1.00, 0.00, -0.00, -1.00, 179.0, 270.6)">P</text><text xml:space="preserve" font-family="LucidaConsole,Lucida Console" font-size="25.0" fill="#FEFFFF" transform="matrix(1.00, 0.00, -0.00, -1.00, 194.1, 270.6)">o</text><text xml:space="preserve" font-family="LucidaConsole,Lucida Console" font-size="25.0" fill="#FEFFFF" transform="matrix(1.00, 0.00, -0.00, -1.00, 209.1, 270.6)">i</text><text xml:space="preserve" font-family="LucidaConsole,Lucida Console" font-size="25.0" fill="#FEFFFF" transform="matrix(1.00, 0.00, -0.00, -1.00, 224.2, 270.6)">n</text><text xml:space="preserve" font-family="LucidaConsole,Lucida Console" font-size="25.0" fill="#FEFFFF" transform="matrix(1.00, 0.00, -0.00, -1.00, 239.2, 270.6)">t</text><text xml:space="preserve" font-family="LucidaConsole,Lucida Console" font-size="25.0" fill="#FEFFFF" transform="matrix(1.00, 0.00, -0.00, -1.00, 254.3, 270.6)">1</text><text xml:space="preserve" font-family="LucidaConsole,Lucida Console" font-size="25.0" fill="#FEFFFF" transform="matrix(1.00, 0.00, -0.00, -1.00, 269.3, 270.6)">"</text><text xml:space="preserve" font-family="LucidaConsole,Lucida Console" font-size="25.0" fill="#FEFFFF" transform="matrix(1.00, 0.00, -0.00, -1.00, 284.4, 270.6)">:</text><text xml:space="preserve" font-family="LucidaConsole,Lucida Console" font-size="25.0" fill="#FEFFFF" transform="matrix(1.00, 0.00, -0.00, -1.00, 299.4, 270.6)"> </text><text xml:space="preserve" font-family="LucidaConsole,Lucida Console" font-size="25.0" fill="#FEFFFF" transform="matrix(1.00, 0.00, -0.00, -1.00, 314.5, 270.6)">"</text><text xml:space="preserve" font-family="LucidaConsole,Lucida Console" font-size="25.0" fill="#FEFFFF" transform="matrix(1.00, 0.00, -0.00, -1.00, 329.5, 270.6)">T</text><text xml:space="preserve" font-family="LucidaConsole,Lucida Console" font-size="25.0" fill="#FEFFFF" transform="matrix(1.00, 0.00, -0.00, -1.00, 344.6, 270.6)">o</text><text xml:space="preserve" font-family="LucidaConsole,Lucida Console" font-size="25.0" fill="#FEFFFF" transform="matrix(1.00, 0.00, -0.00, -1.00, 359.6, 270.6)">B</text><text xml:space="preserve" font-family="LucidaConsole,Lucida Console" font-size="25.0" fill="#FEFFFF" transform="matrix(1.00, 0.00, -0.00, -1.00, 374.7, 270.6)">o</text><text xml:space="preserve" font-family="LucidaConsole,Lucida Console" font-size="25.0" fill="#FEFFFF" transform="matrix(1.00, 0.00, -0.00, -1.00, 389.7, 270.6)">d</text><text xml:space="preserve" font-family="LucidaConsole,Lucida Console" font-size="25.0" fill="#FEFFFF" transform="matrix(1.00, 0.00, -0.00, -1.00, 404.8, 270.6)">y</text><text xml:space="preserve" font-family="LucidaConsole,Lucida Console" font-size="25.0" fill="#FEFFFF" transform="matrix(1.00, 0.00, -0.00, -1.00, 420.1, 270.6)">"</text><text xml:space="preserve" font-family="LucidaConsole,Lucida Console" font-size="25.0" fill="#FEFFFF" transform="matrix(1.00, 0.00, -0.00, -1.00, 435.1, 270.6)">,</text><text xml:space="preserve" font-family="LucidaConsole,Lucida Console" font-size="25.0" fill="#FEFFFF" transform="matrix(1.00, 0.00, -0.00, -1.00, 450.2, 270.6)"> </text><text xml:space="preserve" font-family="LucidaConsole,Lucida Console" font-size="25.0" fill="#FEFFFF" transform="matrix(1.00, 0.00, -0.00, -1.00, 133.9, 245.6)"> </text><text xml:space="preserve" font-family="LucidaConsole,Lucida Console" font-size="25.0" fill="#FEFFFF" transform="matrix(1.00, 0.00, -0.00, -1.00, 148.9, 245.6)"> </text><text xml:space="preserve" font-family="LucidaConsole,Lucida Console" font-size="25.0" fill="#FEFFFF" transform="matrix(1.00, 0.00, -0.00, -1.00, 164.0, 245.6)">"</text><text xml:space="preserve" font-family="LucidaConsole,Lucida Console" font-size="25.0" fill="#FEFFFF" transform="matrix(1.00, 0.00, -0.00, -1.00, 179.0, 245.6)">I</text><text xml:space="preserve" font-family="LucidaConsole,Lucida Console" font-size="25.0" fill="#FEFFFF" transform="matrix(1.00, 0.00, -0.00, -1.00, 194.1, 245.6)">n</text><text xml:space="preserve" font-family="LucidaConsole,Lucida Console" font-size="25.0" fill="#FEFFFF" transform="matrix(1.00, 0.00, -0.00, -1.00, 209.1, 245.6)">d</text><text xml:space="preserve" font-family="LucidaConsole,Lucida Console" font-size="25.0" fill="#FEFFFF" transform="matrix(1.00, 0.00, -0.00, -1.00, 224.2, 245.6)">i</text><text xml:space="preserve" font-family="LucidaConsole,Lucida Console" font-size="25.0" fill="#FEFFFF" transform="matrix(1.00, 0.00, -0.00, -1.00, 239.2, 245.6)">v</text><text xml:space="preserve" font-family="LucidaConsole,Lucida Console" font-size="25.0" fill="#FEFFFF" transform="matrix(1.00, 0.00, -0.00, -1.00, 254.3, 245.6)">i</text><text xml:space="preserve" font-family="LucidaConsole,Lucida Console" font-size="25.0" fill="#FEFFFF" transform="matrix(1.00, 0.00, -0.00, -1.00, 269.3, 245.6)">d</text><text xml:space="preserve" font-family="LucidaConsole,Lucida Console" font-size="25.0" fill="#FEFFFF" transform="matrix(1.00, 0.00, -0.00, -1.00, 284.4, 245.6)">u</text><text xml:space="preserve" font-family="LucidaConsole,Lucida Console" font-size="25.0" fill="#FEFFFF" transform="matrix(1.00, 0.00, -0.00, -1.00, 299.4, 245.6)">a</text><text xml:space="preserve" font-family="LucidaConsole,Lucida Console" font-size="25.0" fill="#FEFFFF" transform="matrix(1.00, 0.00, -0.00, -1.00, 314.5, 245.6)">l</text><text xml:space="preserve" font-family="LucidaConsole,Lucida Console" font-size="25.0" fill="#FEFFFF" transform="matrix(1.00, 0.00, -0.00, -1.00, 329.5, 245.6)">2</text><text xml:space="preserve" font-family="LucidaConsole,Lucida Console" font-size="25.0" fill="#FEFFFF" transform="matrix(1.00, 0.00, -0.00, -1.00, 344.6, 245.6)">"</text><text xml:space="preserve" font-family="LucidaConsole,Lucida Console" font-size="25.0" fill="#FEFFFF" transform="matrix(1.00, 0.00, -0.00, -1.00, 359.6, 245.6)">:</text><text xml:space="preserve" font-family="LucidaConsole,Lucida Console" font-size="25.0" fill="#FEFFFF" transform="matrix(1.00, 0.00, -0.00, -1.00, 374.7, 245.6)"> </text><text xml:space="preserve" font-family="LucidaConsole,Lucida Console" font-size="25.0" fill="#FEFFFF" transform="matrix(1.00, 0.00, -0.00, -1.00, 389.7, 245.6)">"</text><text xml:space="preserve" font-family="LucidaConsole,Lucida Console" font-size="25.0" fill="#FEFFFF" transform="matrix(1.00, 0.00, -0.00, -1.00, 404.8, 245.6)">g</text><text xml:space="preserve" font-family="LucidaConsole,Lucida Console" font-size="25.0" fill="#FEFFFF" transform="matrix(1.00, 0.00, -0.00, -1.00, 420.1, 245.6)">"</text><text xml:space="preserve" font-family="LucidaConsole,Lucida Console" font-size="25.0" fill="#FEFFFF" transform="matrix(1.00, 0.00, -0.00, -1.00, 435.1, 245.6)">,</text><text xml:space="preserve" font-family="LucidaConsole,Lucida Console" font-size="25.0" fill="#FEFFFF" transform="matrix(1.00, 0.00, -0.00, -1.00, 450.2, 245.6)"> </text><text xml:space="preserve" font-family="LucidaConsole,Lucida Console" font-size="25.0" fill="#FEFFFF" transform="matrix(1.00, 0.00, -0.00, -1.00, 133.9, 220.6)"> </text><text xml:space="preserve" font-family="LucidaConsole,Lucida Console" font-size="25.0" fill="#FEFFFF" transform="matrix(1.00, 0.00, -0.00, -1.00, 148.9, 220.6)"> </text><text xml:space="preserve" font-family="LucidaConsole,Lucida Console" font-size="25.0" fill="#FEFFFF" transform="matrix(1.00, 0.00, -0.00, -1.00, 164.0, 220.6)">"</text><text xml:space="preserve" font-family="LucidaConsole,Lucida Console" font-size="25.0" fill="#FEFFFF" transform="matrix(1.00, 0.00, -0.00, -1.00, 179.0, 220.6)">P</text><text xml:space="preserve" font-family="LucidaConsole,Lucida Console" font-size="25.0" fill="#FEFFFF" transform="matrix(1.00, 0.00, -0.00, -1.00, 194.1, 220.6)">o</text><text xml:space="preserve" font-family="LucidaConsole,Lucida Console" font-size="25.0" fill="#FEFFFF" transform="matrix(1.00, 0.00, -0.00, -1.00, 209.1, 220.6)">i</text><text xml:space="preserve" font-family="LucidaConsole,Lucida Console" font-size="25.0" fill="#FEFFFF" transform="matrix(1.00, 0.00, -0.00, -1.00, 224.2, 220.6)">n</text><text xml:space="preserve" font-family="LucidaConsole,Lucida Console" font-size="25.0" fill="#FEFFFF" transform="matrix(1.00, 0.00, -0.00, -1.00, 239.2, 220.6)">t</text><text xml:space="preserve" font-family="LucidaConsole,Lucida Console" font-size="25.0" fill="#FEFFFF" transform="matrix(1.00, 0.00, -0.00, -1.00, 254.3, 220.6)">2</text><text xml:space="preserve" font-family="LucidaConsole,Lucida Console" font-size="25.0" fill="#FEFFFF" transform="matrix(1.00, 0.00, -0.00, -1.00, 269.3, 220.6)">"</text><text xml:space="preserve" font-family="LucidaConsole,Lucida Console" font-size="25.0" fill="#FEFFFF" transform="matrix(1.00, 0.00, -0.00, -1.00, 284.4, 220.6)">:</text><text xml:space="preserve" font-family="LucidaConsole,Lucida Console" font-size="25.0" fill="#FEFFFF" transform="matrix(1.00, 0.00, -0.00, -1.00, 299.4, 220.6)"> </text><text xml:space="preserve" font-family="LucidaConsole,Lucida Console" font-size="25.0" fill="#FEFFFF" transform="matrix(1.00, 0.00, -0.00, -1.00, 314.5, 220.6)">"</text><text xml:space="preserve" font-family="LucidaConsole,Lucida Console" font-size="25.0" fill="#FEFFFF" transform="matrix(1.00, 0.00, -0.00, -1.00, 329.5, 220.6)">T</text><text xml:space="preserve" font-family="LucidaConsole,Lucida Console" font-size="25.0" fill="#FEFFFF" transform="matrix(1.00, 0.00, -0.00, -1.00, 344.6, 220.6)">o</text><text xml:space="preserve" font-family="LucidaConsole,Lucida Console" font-size="25.0" fill="#FEFFFF" transform="matrix(1.00, 0.00, -0.00, -1.00, 359.6, 220.6)">H</text><text xml:space="preserve" font-family="LucidaConsole,Lucida Console" font-size="25.0" fill="#FEFFFF" transform="matrix(1.00, 0.00, -0.00, -1.00, 374.7, 220.6)">e</text><text xml:space="preserve" font-family="LucidaConsole,Lucida Console" font-size="25.0" fill="#FEFFFF" transform="matrix(1.00, 0.00, -0.00, -1.00, 389.7, 220.6)">a</text><text xml:space="preserve" font-family="LucidaConsole,Lucida Console" font-size="25.0" fill="#FEFFFF" transform="matrix(1.00, 0.00, -0.00, -1.00, 404.8, 220.6)">d</text><text xml:space="preserve" font-family="LucidaConsole,Lucida Console" font-size="25.0" fill="#FEFFFF" transform="matrix(1.00, 0.00, -0.00, -1.00, 420.1, 220.6)">"</text><text xml:space="preserve" font-family="LucidaConsole,Lucida Console" font-size="25.0" fill="#FEFFFF" transform="matrix(1.00, 0.00, -0.00, -1.00, 435.1, 220.6)"> </text><text xml:space="preserve" font-family="LucidaConsole,Lucida Console" font-size="25.0" fill="#FEFFFF" transform="matrix(1.00, 0.00, -0.00, -1.00, 133.9, 195.6)">}</text><image xlink:href="../../C5294538-F670-443B-8B55-5D4F46161AB5/assets/6F62C52CB4A21EB1864D2C681613BCD6.png" width="272.00" height="222.00" transform="matrix(1.00, 0.00, -0.00, -1.00, 619.0, 452.0)"></image><image xlink:href="../../C0CF62DF-FB01-4439-861C-5C733B42DE34/assets/F63DFA698788DFBBF04D64A0026E8B8B.png" width="15.00" height="22.00" transform="matrix(1.00, 0.00, -0.00, -1.00, 868.0, 351.0)"></image><text xml:space="preserve" font-family="Helvetica-Light,Helvetica" font-size="24.0" fill="#FEFFFF" transform="matrix(1.00, 0.00, -0.00, -1.00, 868.1, 332.4)">h</text><image xlink:href="../../C5294538-F670-443B-8B55-5D4F46161AB5/assets/6F62C52CB4A21EB1864D2C681613BCD6.png" width="272.00" height="222.00" transform="matrix(1.00, 0.00, -0.00, -1.00, 619.0, 295.0)"></image><image xlink:href="../../C0CF62DF-FB01-4439-861C-5C733B42DE34/assets/38E66459FCADE0139C7123B1C01E50D7.png" width="17.00" height="23.00" transform="matrix(1.00, 0.00, -0.00, -1.00, 867.0, 190.0)"></image><text xml:space="preserve" font-family="Helvetica-Light,Helvetica" font-size="24.0" fill="#FEFFFF" transform="matrix(1.00, 0.00, -0.00, -1.00, 867.4, 175.3)">g</text></g></svg>