<?xml version="1.0" encoding="UTF-8" standalone="no"?><svg xmlns="http://www.w3.org/2000/svg" xmlns:xlink="http://www.w3.org/1999/xlink" clip-rule="evenodd" stroke-miterlimit="10" viewBox="0 0 1024 768"><desc>SVG generated by Keynote</desc><defs></defs><g transform="matrix(1.00, 0.00, -0.00, -1.00, 0.0, 768.0)"><g><clipPath id="clip0x6000076b0860"><path d="M 0.0 768.0 L 1024.0 768.0 L 1024.0 0.0 L 0.0 0.0 Z M 0.0 768.0 "></path></clipPath><g clip-path="url(#clip0x6000076b0860)"><image xlink:href="../../D1633A7A-1E45-48FF-BA06-56002168097B/assets/4E131E180F71435CE7831D195B770FC0.jpeg" width="2048.00" height="1536.00" transform="matrix(0.50, 0.00, -0.00, -0.50, 0.0, 768.0)"></image></g></g><text xml:space="preserve" font-family="Helvetica-Light,Helvetica" font-size="66.4" fill="#FEFFFF" transform="matrix(1.00, 0.00, -0.00, -1.00, 646.7, 696.6)">M</text><text xml:space="preserve" font-family="Helvetica-Light,Helvetica" font-size="66.4" fill="#FEFFFF" transform="matrix(1.00, 0.00, -0.00, -1.00, 702.1, 696.6)">e</text><text xml:space="preserve" font-family="Helvetica-Light,Helvetica" font-size="66.4" fill="#FEFFFF" transform="matrix(1.00, 0.00, -0.00, -1.00, 739.0, 696.6)">d</text><text xml:space="preserve" font-family="Helvetica-Light,Helvetica" font-size="66.4" fill="#FEFFFF" transform="matrix(1.00, 0.00, -0.00, -1.00, 779.5, 696.6)">u</text><text xml:space="preserve" font-family="Helvetica-Light,Helvetica" font-size="66.4" fill="#FEFFFF" transform="matrix(1.00, 0.00, -0.00, -1.00, 816.5, 696.6)">s</text><text xml:space="preserve" font-family="Helvetica-Light,Helvetica" font-size="66.4" fill="#FEFFFF" transform="matrix(1.00, 0.00, -0.00, -1.00, 849.7, 696.6)">a</text><text xml:space="preserve" font-family="Helvetica-Light,Helvetica" font-size="66.4" fill="#FEFFFF" transform="matrix(1.00, 0.00, -0.00, -1.00, 886.6, 696.6)"> </text><text xml:space="preserve" font-family="Helvetica-Light,Helvetica" font-size="66.4" fill="#FEFFFF" transform="matrix(1.00, 0.00, -0.00, -1.00, 905.0, 696.6)"> </text><text xml:space="preserve" font-family="Helvetica-Light,Helvetica" font-size="66.4" fill="#FEFFFF" transform="matrix(1.00, 0.00, -0.00, -1.00, 587.8, 617.6)">E</text><text xml:space="preserve" font-family="Helvetica-Light,Helvetica" font-size="66.4" fill="#FEFFFF" transform="matrix(1.00, 0.00, -0.00, -1.00, 628.3, 617.6)">x</text><text xml:space="preserve" font-family="Helvetica-Light,Helvetica" font-size="66.4" fill="#FEFFFF" transform="matrix(1.00, 0.00, -0.00, -1.00, 661.5, 617.6)">a</text><text xml:space="preserve" font-family="Helvetica-Light,Helvetica" font-size="66.4" fill="#FEFFFF" transform="matrix(1.00, 0.00, -0.00, -1.00, 698.4, 617.6)">m</text><text xml:space="preserve" font-family="Helvetica-Light,Helvetica" font-size="66.4" fill="#FEFFFF" transform="matrix(1.00, 0.00, -0.00, -1.00, 753.8, 617.6)">p</text><text xml:space="preserve" font-family="Helvetica-Light,Helvetica" font-size="66.4" fill="#FEFFFF" transform="matrix(1.00, 0.00, -0.00, -1.00, 794.3, 617.6)">l</text><text xml:space="preserve" font-family="Helvetica-Light,Helvetica" font-size="66.4" fill="#FEFFFF" transform="matrix(1.00, 0.00, -0.00, -1.00, 809.1, 617.6)">e</text><text xml:space="preserve" font-family="Helvetica-Light,Helvetica" font-size="66.4" fill="#FEFFFF" transform="matrix(1.00, 0.00, -0.00, -1.00, 846.0, 617.6)"> </text><text xml:space="preserve" font-family="Helvetica-Light,Helvetica" font-size="66.4" fill="#FEFFFF" transform="matrix(1.00, 0.00, -0.00, -1.00, 864.4, 617.6)">(</text><text xml:space="preserve" font-family="Helvetica-Light,Helvetica" font-size="66.4" fill="#FEFFFF" transform="matrix(1.00, 0.00, -0.00, -1.00, 886.6, 617.6)">5</text><text xml:space="preserve" font-family="Helvetica-Light,Helvetica" font-size="66.4" fill="#FEFFFF" transform="matrix(1.00, 0.00, -0.00, -1.00, 923.5, 617.6)">)</text><text xml:space="preserve" font-family="Helvetica-LightOblique,Helvetica" font-style="italic" font-size="39.0" fill="#FEFFFF" transform="matrix(1.00, 0.00, -0.00, -1.00, 25.0, 706.3)">l</text><text xml:space="preserve" font-family="Helvetica-LightOblique,Helvetica" font-style="italic" font-size="39.0" fill="#FEFFFF" transform="matrix(1.00, 0.00, -0.00, -1.00, 33.7, 706.3)">e</text><text xml:space="preserve" font-family="Helvetica-LightOblique,Helvetica" font-style="italic" font-size="39.0" fill="#FEFFFF" transform="matrix(1.00, 0.00, -0.00, -1.00, 55.3, 706.3)">t</text><text xml:space="preserve" font-family="Helvetica-LightOblique,Helvetica" font-style="italic" font-size="39.0" fill="#FEFFFF" transform="matrix(1.00, 0.00, -0.00, -1.00, 66.2, 706.3)">s</text><text xml:space="preserve" font-family="Helvetica-LightOblique,Helvetica" font-style="italic" font-size="39.0" fill="#FEFFFF" transform="matrix(1.00, 0.00, -0.00, -1.00, 85.7, 706.3)"> </text><text xml:space="preserve" font-family="Helvetica-LightOblique,Helvetica" font-style="italic" font-size="39.0" fill="#FEFFFF" transform="matrix(1.00, 0.00, -0.00, -1.00, 96.5, 706.3)">m</text><text xml:space="preserve" font-family="Helvetica-LightOblique,Helvetica" font-style="italic" font-size="39.0" fill="#FEFFFF" transform="matrix(1.00, 0.00, -0.00, -1.00, 129.0, 706.3)">a</text><text xml:space="preserve" font-family="Helvetica-LightOblique,Helvetica" font-style="italic" font-size="39.0" fill="#FEFFFF" transform="matrix(1.00, 0.00, -0.00, -1.00, 150.7, 706.3)">k</text><text xml:space="preserve" font-family="Helvetica-LightOblique,Helvetica" font-style="italic" font-size="39.0" fill="#FEFFFF" transform="matrix(1.00, 0.00, -0.00, -1.00, 170.2, 706.3)">e</text><text xml:space="preserve" font-family="Helvetica-LightOblique,Helvetica" font-style="italic" font-size="39.0" fill="#FEFFFF" transform="matrix(1.00, 0.00, -0.00, -1.00, 191.9, 706.3)"> </text><text xml:space="preserve" font-family="Helvetica-LightOblique,Helvetica" font-style="italic" font-size="39.0" fill="#FEFFFF" transform="matrix(1.00, 0.00, -0.00, -1.00, 202.7, 706.3)">t</text><text xml:space="preserve" font-family="Helvetica-LightOblique,Helvetica" font-style="italic" font-size="39.0" fill="#FEFFFF" transform="matrix(1.00, 0.00, -0.00, -1.00, 213.6, 706.3)">h</text><text xml:space="preserve" font-family="Helvetica-LightOblique,Helvetica" font-style="italic" font-size="39.0" fill="#FEFFFF" transform="matrix(1.00, 0.00, -0.00, -1.00, 235.2, 706.3)">e</text><text xml:space="preserve" font-family="Helvetica-LightOblique,Helvetica" font-style="italic" font-size="39.0" fill="#FEFFFF" transform="matrix(1.00, 0.00, -0.00, -1.00, 256.9, 706.3)"> </text><text xml:space="preserve" font-family="Helvetica-LightOblique,Helvetica" font-style="italic" font-size="39.0" fill="#FEFFFF" transform="matrix(1.00, 0.00, -0.00, -1.00, 267.8, 706.3)">s</text><text xml:space="preserve" font-family="Helvetica-LightOblique,Helvetica" font-style="italic" font-size="39.0" fill="#FEFFFF" transform="matrix(1.00, 0.00, -0.00, -1.00, 287.3, 706.3)">n</text><text xml:space="preserve" font-family="Helvetica-LightOblique,Helvetica" font-style="italic" font-size="39.0" fill="#FEFFFF" transform="matrix(1.00, 0.00, -0.00, -1.00, 309.0, 706.3)">a</text><text xml:space="preserve" font-family="Helvetica-LightOblique,Helvetica" font-style="italic" font-size="39.0" fill="#FEFFFF" transform="matrix(1.00, 0.00, -0.00, -1.00, 330.6, 706.3)">k</text><text xml:space="preserve" font-family="Helvetica-LightOblique,Helvetica" font-style="italic" font-size="39.0" fill="#FEFFFF" transform="matrix(1.00, 0.00, -0.00, -1.00, 350.1, 706.3)">e</text><text xml:space="preserve" font-family="Helvetica-LightOblique,Helvetica" font-style="italic" font-size="39.0" fill="#FEFFFF" transform="matrix(1.00, 0.00, -0.00, -1.00, 371.8, 706.3)"> </text><text xml:space="preserve" font-family="Helvetica-LightOblique,Helvetica" font-style="italic" font-size="39.0" fill="#FEFFFF" transform="matrix(1.00, 0.00, -0.00, -1.00, 382.7, 706.3)">l</text><text xml:space="preserve" font-family="Helvetica-LightOblique,Helvetica" font-style="italic" font-size="39.0" fill="#FEFFFF" transform="matrix(1.00, 0.00, -0.00, -1.00, 391.3, 706.3)">o</text><text xml:space="preserve" font-family="Helvetica-LightOblique,Helvetica" font-style="italic" font-size="39.0" fill="#FEFFFF" transform="matrix(1.00, 0.00, -0.00, -1.00, 413.0, 706.3)">n</text><text xml:space="preserve" font-family="Helvetica-LightOblique,Helvetica" font-style="italic" font-size="39.0" fill="#FEFFFF" transform="matrix(1.00, 0.00, -0.00, -1.00, 434.7, 706.3)">g</text><text xml:space="preserve" font-family="Helvetica-LightOblique,Helvetica" font-style="italic" font-size="39.0" fill="#FEFFFF" transform="matrix(1.00, 0.00, -0.00, -1.00, 458.5, 706.3)">e</text><text xml:space="preserve" font-family="Helvetica-LightOblique,Helvetica" font-style="italic" font-size="39.0" fill="#FEFFFF" transform="matrix(1.00, 0.00, -0.00, -1.00, 480.2, 706.3)">r</text><text xml:space="preserve" font-family="Helvetica-LightOblique,Helvetica" font-style="italic" font-size="39.0" fill="#FEFFFF" transform="matrix(1.00, 0.00, -0.00, -1.00, 493.2, 706.3)"> </text><text xml:space="preserve" font-family="Helvetica-LightOblique,Helvetica" font-style="italic" font-size="39.0" fill="#FEFFFF" transform="matrix(1.00, 0.00, -0.00, -1.00, 504.0, 706.3)">a</text><text xml:space="preserve" font-family="Helvetica-LightOblique,Helvetica" font-style="italic" font-size="39.0" fill="#FEFFFF" transform="matrix(1.00, 0.00, -0.00, -1.00, 525.7, 706.3)">n</text><text xml:space="preserve" font-family="Helvetica-LightOblique,Helvetica" font-style="italic" font-size="39.0" fill="#FEFFFF" transform="matrix(1.00, 0.00, -0.00, -1.00, 547.4, 706.3)">d</text><text xml:space="preserve" font-family="Helvetica-LightOblique,Helvetica" font-style="italic" font-size="39.0" fill="#FEFFFF" transform="matrix(1.00, 0.00, -0.00, -1.00, 571.2, 706.3)"> </text><text xml:space="preserve" font-family="Helvetica-LightOblique,Helvetica" font-style="italic" font-size="39.0" fill="#FEFFFF" transform="matrix(1.00, 0.00, -0.00, -1.00, 582.1, 706.3)"> </text><text xml:space="preserve" font-family="Helvetica-LightOblique,Helvetica" font-style="italic" font-size="39.0" fill="#FEFFFF" transform="matrix(1.00, 0.00, -0.00, -1.00, 25.0, 659.3)">a</text><text xml:space="preserve" font-family="Helvetica-LightOblique,Helvetica" font-style="italic" font-size="39.0" fill="#FEFFFF" transform="matrix(1.00, 0.00, -0.00, -1.00, 46.7, 659.3)">d</text><text xml:space="preserve" font-family="Helvetica-LightOblique,Helvetica" font-style="italic" font-size="39.0" fill="#FEFFFF" transform="matrix(1.00, 0.00, -0.00, -1.00, 70.5, 659.3)">d</text><text xml:space="preserve" font-family="Helvetica-LightOblique,Helvetica" font-style="italic" font-size="39.0" fill="#FEFFFF" transform="matrix(1.00, 0.00, -0.00, -1.00, 94.3, 659.3)"> </text><text xml:space="preserve" font-family="Helvetica-LightOblique,Helvetica" font-style="italic" font-size="39.0" fill="#FEFFFF" transform="matrix(1.00, 0.00, -0.00, -1.00, 105.2, 659.3)">a</text><text xml:space="preserve" font-family="Helvetica-LightOblique,Helvetica" font-style="italic" font-size="39.0" fill="#FEFFFF" transform="matrix(1.00, 0.00, -0.00, -1.00, 126.9, 659.3)">n</text><text xml:space="preserve" font-family="Helvetica-LightOblique,Helvetica" font-style="italic" font-size="39.0" fill="#FEFFFF" transform="matrix(1.00, 0.00, -0.00, -1.00, 148.6, 659.3)">o</text><text xml:space="preserve" font-family="Helvetica-LightOblique,Helvetica" font-style="italic" font-size="39.0" fill="#FEFFFF" transform="matrix(1.00, 0.00, -0.00, -1.00, 170.2, 659.3)">t</text><text xml:space="preserve" font-family="Helvetica-LightOblique,Helvetica" font-style="italic" font-size="39.0" fill="#FEFFFF" transform="matrix(1.00, 0.00, -0.00, -1.00, 181.1, 659.3)">h</text><text xml:space="preserve" font-family="Helvetica-LightOblique,Helvetica" font-style="italic" font-size="39.0" fill="#FEFFFF" transform="matrix(1.00, 0.00, -0.00, -1.00, 202.8, 659.3)">e</text><text xml:space="preserve" font-family="Helvetica-LightOblique,Helvetica" font-style="italic" font-size="39.0" fill="#FEFFFF" transform="matrix(1.00, 0.00, -0.00, -1.00, 224.4, 659.3)">r</text><text xml:space="preserve" font-family="Helvetica-LightOblique,Helvetica" font-style="italic" font-size="39.0" fill="#FEFFFF" transform="matrix(1.00, 0.00, -0.00, -1.00, 237.4, 659.3)"> </text><text xml:space="preserve" font-family="Helvetica-LightOblique,Helvetica" font-style="italic" font-size="39.0" fill="#FEFFFF" transform="matrix(1.00, 0.00, -0.00, -1.00, 248.3, 659.3)">h</text><text xml:space="preserve" font-family="Helvetica-LightOblique,Helvetica" font-style="italic" font-size="39.0" fill="#FEFFFF" transform="matrix(1.00, 0.00, -0.00, -1.00, 270.0, 659.3)">e</text><text xml:space="preserve" font-family="Helvetica-LightOblique,Helvetica" font-style="italic" font-size="39.0" fill="#FEFFFF" transform="matrix(1.00, 0.00, -0.00, -1.00, 291.6, 659.3)">a</text><text xml:space="preserve" font-family="Helvetica-LightOblique,Helvetica" font-style="italic" font-size="39.0" fill="#FEFFFF" transform="matrix(1.00, 0.00, -0.00, -1.00, 313.3, 659.3)">d</text><text xml:space="preserve" font-family="Helvetica-LightOblique,Helvetica" font-style="italic" font-size="39.0" fill="#FEFFFF" transform="matrix(1.00, 0.00, -0.00, -1.00, 337.2, 659.3)"> </text><g><clipPath id="clip0x6080096a6e40"><path d="M 286.0 471.0 L 681.0 471.0 L 681.0 161.0 L 286.0 161.0 Z M 285.7 471.2 "></path></clipPath><g clip-path="url(#clip0x6080096a6e40)"><g><clipPath id="clip0x6080096a6fc0"><path d="M 500.7 161.5 C 510.2 161.9 518.0 162.7 518.0 163.4 C 518.0 165.6 508.9 167.9 500.4 168.0 L 492.0 168.0 L 492.0 177.4 C 492.0 182.5 492.7 187.0 493.4 187.5 C 494.8 188.4 495.3 221.8 493.9 223.2 C 493.4 223.7 491.2 223.1 488.9 221.9 C 486.5 220.6 481.3 219.6 476.7 219.6 C 466.8 219.4 459.8 223.2 449.4 234.4 C 425.6 259.9 419.7 264.1 408.5 264.1 C 400.4 264.1 394.6 260.5 378.2 245.5 C 371.6 239.4 364.9 233.5 363.3 232.5 C 361.6 231.4 360.7 229.8 361.2 229.0 C 361.6 228.2 361.6 227.9 361.0 228.4 C 360.5 228.9 356.9 227.3 353.1 224.9 C 349.4 222.5 342.2 218.7 337.3 216.4 C 329.5 212.7 326.8 212.1 317.6 212.1 C 310.4 212.1 305.5 212.8 302.6 214.3 C 297.2 217.0 290.0 223.8 287.6 228.4 C 284.8 233.7 285.2 244.6 288.4 250.9 C 293.3 260.4 308.6 274.8 334.3 294.2 C 362.2 315.1 364.5 317.2 367.5 324.3 C 369.4 328.8 369.3 329.4 366.8 332.6 C 365.2 334.6 362.7 336.1 360.8 336.1 C 357.8 336.1 357.6 336.6 357.6 342.7 C 357.6 349.0 357.8 349.4 361.0 349.4 C 368.2 349.4 376.3 346.4 379.5 342.5 C 389.1 331.2 384.6 321.6 356.5 293.3 C 330.1 266.6 325.5 259.0 332.1 253.0 C 339.4 246.4 365.1 256.9 385.1 274.6 C 421.0 306.5 429.0 307.4 449.5 281.9 C 460.5 268.1 470.6 257.7 475.0 255.4 C 480.1 252.7 488.6 253.0 494.6 256.1 C 501.1 259.4 502.1 262.9 497.8 267.0 C 493.7 270.8 481.4 286.1 481.4 287.4 C 481.4 287.9 480.3 289.9 478.9 291.9 C 477.5 293.8 476.4 295.7 476.3 296.1 C 476.3 296.5 475.6 298.6 474.7 300.8 C 473.9 303.0 473.0 305.4 472.8 306.1 C 472.7 306.8 471.8 309.9 471.0 312.9 C 469.3 318.9 468.7 341.4 470.1 346.9 C 470.7 349.3 469.8 353.6 467.3 360.3 C 464.0 368.9 463.2 372.1 463.0 387.2 L 463.0 404.4 L 458.9 406.2 C 455.6 407.6 454.8 408.7 454.8 411.9 C 454.8 416.7 456.9 418.1 466.1 419.4 C 469.8 419.9 473.4 420.8 474.1 421.3 C 474.8 421.8 480.5 422.3 486.7 422.5 C 493.0 422.7 498.5 423.3 499.1 423.9 C 499.7 424.5 502.5 434.2 505.2 445.5 L 510.3 466.0 L 518.8 468.6 C 526.3 470.8 531.8 471.2 565.3 471.2 C 598.8 471.3 604.2 471.0 611.6 468.8 C 616.2 467.4 620.5 465.3 621.1 464.1 C 621.7 463.0 624.4 453.6 627.2 443.3 C 629.9 433.1 632.5 424.3 633.0 423.7 C 633.5 423.2 640.1 422.7 647.8 422.5 C 655.5 422.4 662.4 421.9 663.1 421.5 C 663.9 421.0 668.1 419.8 672.4 418.7 C 679.9 416.8 680.5 416.4 680.8 412.5 C 681.2 409.0 680.6 407.9 677.6 406.5 L 674.0 404.7 L 674.0 387.9 C 673.9 378.7 673.0 370.3 672.4 369.3 C 671.7 368.2 671.1 366.8 671.1 366.1 C 670.8 362.0 668.1 355.8 663.6 348.3 C 660.2 342.7 658.5 338.1 658.4 334.9 C 658.3 328.6 654.1 308.3 652.0 304.4 C 651.1 302.8 650.7 301.4 651.1 301.4 C 651.5 301.4 650.8 299.5 649.6 297.1 C 648.3 294.7 647.2 292.0 647.0 291.0 C 646.8 290.1 645.0 287.1 642.9 284.4 C 640.9 281.7 639.5 279.4 639.8 279.4 C 640.2 279.4 636.4 275.4 631.5 270.5 C 623.9 263.1 622.6 261.1 623.2 258.4 C 623.9 255.7 623.4 254.9 620.0 253.5 C 613.2 250.7 612.8 249.3 616.5 241.0 C 619.3 234.6 623.9 218.5 623.9 214.7 C 623.9 214.1 622.5 213.7 620.9 213.8 C 617.4 214.2 617.2 212.8 619.3 202.8 C 620.2 198.8 621.3 192.7 621.8 189.3 C 622.6 183.8 622.4 183.1 619.7 182.4 C 617.1 181.7 617.4 181.0 618.0 174.9 L 618.0 168.0 L 609.0 168.0 C 599.3 168.0 589.1 165.1 591.4 162.9 C 592.1 162.2 601.0 161.4 611.2 161.2 C 621.5 161.0 596.9 160.8 556.6 160.8 C 516.4 160.7 491.2 161.1 500.7 161.5 "></path></clipPath><g clip-path="url(#clip0x6080096a6fc0)"><image xlink:href="../../8E02BBB3-38FC-4A44-B85E-3734B54A96A6/assets/C46D6AB317E22E311A7B77686320B4F5.png" width="651.00" height="557.00" transform="matrix(1.00, 0.00, -0.00, -1.00, 264.0, 520.0)"></image></g></g></g></g></g></svg>